<?xml version="1.0" standalone="no"?><!DOCTYPE svg PUBLIC "-//W3C//DTD SVG 1.1//EN" "http://www.w3.org/Graphics/SVG/1.1/DTD/svg11.dtd"><svg t="1756101670253" class="icon" viewBox="0 0 1024 1024" version="1.1" xmlns="http://www.w3.org/2000/svg" p-id="29073" width="32" height="32" xmlns:xlink="http://www.w3.org/1999/xlink"><path d="M940.8 416a32 32 0 0 0-32 32v128a224 224 0 0 1-224 224H320v-70.272a32 32 0 0 0-48.96-27.136l-163.648 102.272a32 32 0 0 0 0 54.272l163.648 102.272A32 32 0 0 0 320 934.272v-70.336l364.8 0.064A288 288 0 0 0 972.8 576V448a32 32 0 0 0-32-32z m-463.232-64a32 32 0 0 0-32 32v324.096a32 32 0 0 0 32 32l5.76-0.512a32 32 0 0 0 26.24-31.488V578.048h160a32 32 0 0 0 31.488-26.24l0.512-5.76a32 32 0 0 0-32-32h-160V416h160a32 32 0 1 0 0-64h-192z m276.096-247.232a32 32 0 0 0-4.864 16.96V192L384 192a288 288 0 0 0-288 288v128a32 32 0 1 0 64 0v-128A224 224 0 0 1 384 256h364.8v70.272a32 32 0 0 0 48.96 27.136l163.648-102.272a32 32 0 0 0 0-54.272l-163.648-102.272a32 32 0 0 0-44.096 10.24z" fill="#6bd452" p-id="29074"></path></svg>