<?xml version="1.0" standalone="no"?><!DOCTYPE svg PUBLIC "-//W3C//DTD SVG 1.1//EN" "http://www.w3.org/Graphics/SVG/1.1/DTD/svg11.dtd"><svg t="1756102131845" class="icon" viewBox="0 0 1024 1024" version="1.1" xmlns="http://www.w3.org/2000/svg" p-id="31095" xmlns:xlink="http://www.w3.org/1999/xlink" width="32" height="32"><path d="M917.333333 384a42.666667 42.666667 0 0 1 42.56 39.466667L960 426.666667v298.666666a128 128 0 0 1-123.2 127.914667L832 853.333333l-546.858667-0.021333 36.608 36.608a42.666667 42.666667 0 1 1-60.330666 60.352l-117.738667-117.738667a42.538667 42.538667 0 0 1-15.445333-33.002666 42.517333 42.517333 0 0 1 15.424-32.96l117.76-117.738667a42.666667 42.666667 0 0 1 60.330666 60.352l-58.837333 58.794667L832 768a42.666667 42.666667 0 0 0 42.56-39.466667L874.666667 725.333333V426.666667a42.666667 42.666667 0 0 1 42.666666-42.666667zM762.816 76.501333l117.76 117.717334A42.538667 42.538667 0 0 1 896 227.2a42.517333 42.517333 0 0 1-15.445333 32.96l-117.76 117.76a42.666667 42.666667 0 1 1-60.330667-60.373333l58.837333-58.794667H192.234667a42.666667 42.666667 0 0 0-42.538667 39.466667l-0.128 3.2v298.666666a42.666667 42.666667 0 0 1-85.205333 3.178667l-0.128-3.2v-298.666667a128 128 0 0 1 123.2-127.914666l4.8-0.085334 546.858666 0.021334-36.608-36.608a42.666667 42.666667 0 1 1 60.330667-60.330667z" fill="#6bd452" p-id="31096"></path></svg>