<?xml version="1.0" standalone="no"?><!DOCTYPE svg PUBLIC "-//W3C//DTD SVG 1.1//EN" "http://www.w3.org/Graphics/SVG/1.1/DTD/svg11.dtd"><svg t="1755855909318" class="icon" viewBox="0 0 1024 1024" version="1.1" xmlns="http://www.w3.org/2000/svg" p-id="16746" xmlns:xlink="http://www.w3.org/1999/xlink" width="16" height="16"><path d="M512 0C229.688889 0 0 229.688889 0 512s229.688889 512 512 512 512-229.688889 512-512S794.311111 0 512 0z m0 960.711111c-247.466667 0-448.711111-201.244444-448.711111-448.711111S264.533333 63.288889 512 63.288889s448.711111 201.244444 448.711111 448.711111-201.244444 448.711111-448.711111 448.711111z" fill="#6bd452" p-id="16747"></path><path d="M512 0C229.688889 0 0 229.688889 0 512s229.688889 512 512 512 512-229.688889 512-512S794.311111 0 512 0z m0 960.711111c-247.466667 0-448.711111-201.244444-448.711111-448.711111S264.533333 63.288889 512 63.288889s448.711111 201.244444 448.711111 448.711111-201.244444 448.711111-448.711111 448.711111z" fill="#6bd452" p-id="16748"></path><path d="M512 0C229.688889 0 0 229.688889 0 512s229.688889 512 512 512 512-229.688889 512-512S794.311111 0 512 0z m0 960.711111c-247.466667 0-448.711111-201.244444-448.711111-448.711111S264.533333 63.288889 512 63.288889s448.711111 201.244444 448.711111 448.711111-201.244444 448.711111-448.711111 448.711111z" fill="#6bd452" p-id="16749"></path><path d="M594.730667 682.666667H428.323556C380.103111 682.666667 341.333333 643.790222 341.333333 595.434667V428.565333C341.333333 380.209778 380.103111 341.333333 428.323556 341.333333h167.352888C643.911111 341.333333 682.666667 380.209778 682.666667 428.565333v167.822223C681.720889 643.790222 642.951111 682.666667 594.730667 682.666667z" fill="#6bd452" p-id="16750"></path></svg>