<?xml version="1.0" standalone="no"?><!DOCTYPE svg PUBLIC "-//W3C//DTD SVG 1.1//EN" "http://www.w3.org/Graphics/SVG/1.1/DTD/svg11.dtd"><svg t="1756092559008" class="icon" viewBox="0 0 1024 1024" version="1.1" xmlns="http://www.w3.org/2000/svg" p-id="18982" xmlns:xlink="http://www.w3.org/1999/xlink" width="16" height="16"><path d="M163.93 694.68s20.35 25.48 155.99-4.16 145.78 22.08 237.05 16c91.27-6.08 146.95-31.44 223.1-31.44 51.72 0 74.8 5.17 79.87 9.54 5.07 4.37-130.81 218.61-353.97 212.16-280.92-8.13-342.04-202.1-342.04-202.1z" fill="#6bd452" opacity=".5" p-id="18983"></path><path d="M512 920c-225.36 0-408-182.64-408-408s182.64-408 408-408 408 182.64 408 408-182.64 408-408 408z m0-44.8c200.64 0 363.2-162.64 363.2-363.2S712.64 148.8 512 148.8 148.8 311.36 148.8 512 311.36 875.2 512 875.2z m0 0" fill="#6bd452" p-id="18984"></path><path d="M720.8 579.52V460.8c0-7.6-6.16-13.76-13.76-13.76h-187.2v-93.76c38.24-7.28 67.36-40.64 67.36-80.88 0-44.96-36.48-81.44-81.44-81.44s-81.44 36.48-81.44 81.44c0 40.16 29.12 73.6 67.36 80.24v94.4H322c-7.6 0-13.76 6.16-13.76 13.76v118.72c-38.24 6.64-67.36 40-67.36 80.16 0 44.96 36.48 81.44 81.44 81.44s81.44-36.48 81.44-81.44c0-40.16-29.12-73.52-67.36-80.16v-104.4h356.48v104.4c-38.24 6.64-67.36 40-67.36 80.16 0 44.96 36.48 81.44 81.44 81.44s81.44-36.48 81.44-81.44c-0.24-40.16-29.36-73.52-67.6-80.16zM452.4 272.48c0-29.44 23.92-53.36 53.36-53.36 29.44 0 53.36 23.92 53.36 53.36 0 29.44-23.92 53.36-53.36 53.36-29.44 0-53.36-23.92-53.36-53.36z m-76.8 387.2c0 29.44-23.92 53.36-53.36 53.36-29.44 0-53.36-23.92-53.36-53.36 0-29.44 23.92-53.28 53.36-53.28 29.44 0 53.36 23.84 53.36 53.28z m331.12 53.36c-29.44 0-53.36-23.92-53.36-53.36 0-29.44 23.92-53.36 53.36-53.36 29.44 0 53.36 23.92 53.36 53.36 0 29.44-23.84 53.36-53.36 53.36z m0 0" fill="#6bd452" p-id="18985"></path></svg>