<?xml version="1.0" standalone="no"?><!DOCTYPE svg PUBLIC "-//W3C//DTD SVG 1.1//EN" "http://www.w3.org/Graphics/SVG/1.1/DTD/svg11.dtd"><svg t="1756091966099" class="icon" viewBox="0 0 1024 1024" version="1.1" xmlns="http://www.w3.org/2000/svg" p-id="11710" xmlns:xlink="http://www.w3.org/1999/xlink" width="16" height="16"><path d="M198.4 486.4v-192c0-38.4 32-76.8 76.8-76.8H384c38.4 0 70.4 38.4 64 76.8v192h128v-192c0-38.4 32-70.4 70.4-76.8H755.2c38.4 0 70.4 38.4 70.4 76.8v192H1024C1011.2 217.6 787.2 0 512 0S12.8 217.6 0 486.4h198.4z" fill="#6bd452" p-id="11711"></path><path d="M748.8 262.4h-102.4c-12.8 0-25.6 12.8-25.6 25.6v441.6c0 12.8 12.8 25.6 25.6 25.6h102.4c12.8 0 25.6-12.8 25.6-25.6V294.4c6.4-19.2-6.4-32-25.6-32z" fill="#6bd452" p-id="11712"></path><path d="M825.6 537.6v192c0 38.4-32 76.8-76.8 76.8h-96c-38.4 0-76.8-32-76.8-76.8v-192H448v192c0 38.4-32 76.8-76.8 76.8H275.2c-38.4 0-76.8-32-76.8-76.8V531.2H0C12.8 806.4 236.8 1024 512 1024s492.8-217.6 505.6-486.4h-192z" fill="#6bd452" p-id="11713"></path><path d="M371.2 262.4H275.2c-19.2 0-32 12.8-32 32v441.6c0 12.8 12.8 25.6 25.6 25.6h102.4c12.8 0 25.6-12.8 25.6-25.6V294.4c6.4-19.2-6.4-32-25.6-32z" fill="#6bd452" p-id="11714"></path></svg>