<?xml version="1.0" standalone="no"?><!DOCTYPE svg PUBLIC "-//W3C//DTD SVG 1.1//EN" "http://www.w3.org/Graphics/SVG/1.1/DTD/svg11.dtd"><svg t="1756178721243" class="icon" viewBox="0 0 1024 1024" version="1.1" xmlns="http://www.w3.org/2000/svg" p-id="5342" xmlns:xlink="http://www.w3.org/1999/xlink" width="32" height="32"><path d="M242.176 486.4h539.648v51.2H242.176z" p-id="5343" fill="#6bd452"></path><path d="M486.4 242.176h51.2v539.648H486.4z" p-id="5344" fill="#6bd452"></path><path d="M512 984.064c260.608 0 472.064-211.456 472.064-472.064 0-260.608-211.456-472.064-472.064-472.064C251.392 39.936 39.936 251.392 39.936 512c0 260.608 211.456 472.064 472.064 472.064z m0-52.224c-231.936 0-419.84-187.904-419.84-419.84s187.904-419.84 419.84-419.84 419.84 187.904 419.84 419.84-187.904 419.84-419.84 419.84z m0-15.36" p-id="5345" fill="#6bd452"></path></svg>