<?xml version="1.0" standalone="no"?><!DOCTYPE svg PUBLIC "-//W3C//DTD SVG 1.1//EN" "http://www.w3.org/Graphics/SVG/1.1/DTD/svg11.dtd"><svg t="1756178875961" class="icon" viewBox="0 0 1024 1024" version="1.1" xmlns="http://www.w3.org/2000/svg" p-id="19337" xmlns:xlink="http://www.w3.org/1999/xlink" width="32" height="32"><path d="M512 109.056a402.944 402.944 0 1 0 0 805.888 402.944 402.944 0 0 0 0-805.888zM512 51.2a460.8 460.8 0 1 1 0 921.6 460.8 460.8 0 0 1 0-921.6z m54.2208 472.2176l81.408-81.408c14.6944-14.6944 15.1552-37.9904 1.0752-52.0704-14.08-14.08-37.376-13.6192-52.0704 1.1264l-81.408 81.408-90.368-90.4192c-14.08-14.08-37.376-13.568-52.1216 1.1264-14.6944 14.6944-15.1552 37.9904-1.0752 52.0704l90.368 90.4192-95.232 95.1296c-14.6432 14.6944-15.1552 38.0416-1.0752 52.1216 14.08 14.08 37.376 13.568 52.1216-1.1264l95.1296-95.1808 90.5216 90.5216c14.08 14.08 37.376 13.568 52.0704-1.1264 14.6944-14.6944 15.2064-38.0416 1.1264-52.1216l-90.4704-90.4704z" fill="#6bd452" p-id="19338"></path></svg>