<?xml version="1.0" standalone="no"?><!DOCTYPE svg PUBLIC "-//W3C//DTD SVG 1.1//EN" "http://www.w3.org/Graphics/SVG/1.1/DTD/svg11.dtd"><svg t="1756100459819" class="icon" viewBox="0 0 1024 1024" version="1.1" xmlns="http://www.w3.org/2000/svg" p-id="24579" xmlns:xlink="http://www.w3.org/1999/xlink" width="16" height="16"><path d="M426.1376 153.088a138.752 138.752 0 0 0-267.4688 0H0v73.728h158.6688a138.752 138.752 0 0 0 267.4688 0h575.488V153.088H426.1376zM292.4032 254.8736A64.9216 64.9216 0 1 1 357.376 189.952c0 35.84-29.0304 64.9216-64.9216 64.9216z m416.768 103.3216a138.9568 138.9568 0 0 0-133.7344 101.888H0v73.728h575.488a138.752 138.752 0 0 0 267.4688 0h158.6688v-73.728h-158.72a138.9568 138.9568 0 0 0-133.6832-101.888z m0 203.6736a64.9216 64.9216 0 1 1 64.9728-64.9216c0 35.84-29.0816 64.9216-64.9216 64.9216z m-416.768 103.424A138.9568 138.9568 0 0 0 158.72 767.0272H0v73.7792h158.6688a138.752 138.752 0 0 0 267.4688 0h575.488v-73.728H426.1376a138.9568 138.9568 0 0 0-133.7344-101.888z m0 203.6224a64.9216 64.9216 0 1 1 64.9216-64.9216c0 35.84-29.0304 64.9216-64.9216 64.9216z" fill="#6bd452" p-id="24580"></path></svg>